<svg width="282" height="48" viewBox="0 0 282 48" fill="none" xmlns="http://www.w3.org/2000/svg">
<path d="M29.648 2.544L29.0302 3.33032L29.0432 3.34058L29.0566 3.3504L29.648 2.544ZM30.928 4.4L29.9645 4.66764L29.9682 4.68092L29.9722 4.69408L30.928 4.4ZM43.728 46V47H45.082L44.6838 45.7059L43.728 46ZM33.744 46L32.7807 46.2685L32.9846 47H33.744V46ZM30.48 34.288L31.4433 34.0195L31.2394 33.288H30.48V34.288ZM15.248 34.288V33.288H14.4846L14.2834 34.0244L15.248 34.288ZM12.048 46V47H12.8114L13.0126 46.2636L12.048 46ZM2.064 46L1.10822 45.7059L0.710041 47H2.064V46ZM14.864 4.4L15.8198 4.69408L15.8238 4.68092L15.8275 4.66764L14.864 4.4ZM16.08 2.544L15.4886 1.73759L15.4752 1.74742L15.4622 1.75768L16.08 2.544ZM21.072 13.488L22.0351 13.7573L22.0388 13.744L22.0421 13.7305L21.072 13.488ZM17.296 26.992L16.3329 26.7227L15.978 27.992H17.296V26.992ZM28.432 26.992V27.992H29.744L29.3962 26.7269L28.432 26.992ZM24.72 13.488L25.6842 13.2229L25.6796 13.2063L25.6745 13.1897L24.72 13.488ZM24.144 11.376L23.1576 11.5404L23.163 11.5729L23.1706 11.605L24.144 11.376ZM23.76 9.2L24.7429 9.01571L24.5899 8.2H23.76V9.2ZM22.032 9.2V8.2H21.2021L21.0491 9.01571L22.032 9.2ZM21.584 11.376L22.5575 11.6051L22.5602 11.5929L21.584 11.376ZM27.536 2.84C28.1387 2.84 28.6213 3.00905 29.0302 3.33032L30.2658 1.75768C29.48 1.14028 28.5546 0.839996 27.536 0.839996V2.84ZM29.0566 3.3504C29.5148 3.68638 29.8109 4.11489 29.9645 4.66764L31.8915 4.13235C31.6184 3.14911 31.0612 2.34028 30.2394 1.73759L29.0566 3.3504ZM29.9722 4.69408L42.7722 46.2941L44.6838 45.7059L31.8838 4.10591L29.9722 4.69408ZM43.728 45H33.744V47H43.728V45ZM34.7073 45.7315L31.4433 34.0195L29.5167 34.5565L32.7807 46.2685L34.7073 45.7315ZM30.48 33.288H15.248V35.288H30.48V33.288ZM14.2834 34.0244L11.0834 45.7364L13.0126 46.2636L16.2126 34.5516L14.2834 34.0244ZM12.048 45H2.064V47H12.048V45ZM3.01978 46.2941L15.8198 4.69408L13.9082 4.10591L1.10822 45.7059L3.01978 46.2941ZM15.8275 4.66764C15.9868 4.09416 16.2766 3.66125 16.6978 3.33032L15.4622 1.75768C14.6887 2.36541 14.1678 3.16983 13.9005 4.13235L15.8275 4.66764ZM16.6714 3.3504C17.1359 3.00971 17.6531 2.84 18.256 2.84V0.839996C17.2375 0.839996 16.3041 1.13961 15.4886 1.73759L16.6714 3.3504ZM18.256 2.84H27.536V0.839996H18.256V2.84ZM20.1089 13.2187L16.3329 26.7227L18.2591 27.2613L22.0351 13.7573L20.1089 13.2187ZM17.296 27.992H28.432V25.992H17.296V27.992ZM29.3962 26.7269L25.6842 13.2229L23.7558 13.753L27.4678 27.257L29.3962 26.7269ZM25.6745 13.1897C25.4686 12.5308 25.2828 11.85 25.1174 11.147L23.1706 11.605C23.3465 12.3527 23.5448 13.0798 23.7655 13.7863L25.6745 13.1897ZM25.1304 11.2116C25.0014 10.4377 24.8723 9.70573 24.7429 9.01571L22.7771 9.38429C22.9038 10.0596 23.0306 10.7783 23.1576 11.5404L25.1304 11.2116ZM23.76 8.2H22.032V10.2H23.76V8.2ZM21.0491 9.01571C20.9234 9.68614 20.7764 10.4005 20.6078 11.1591L22.5602 11.5929C22.733 10.8155 22.8846 10.0792 23.0149 9.38429L21.0491 9.01571ZM20.6106 11.147C20.4409 11.868 20.2713 12.5675 20.1019 13.2455L22.0421 13.7305C22.214 13.0431 22.3858 12.3346 22.5574 11.605L20.6106 11.147ZM78.374 17.392L77.5548 17.9655L77.5602 17.9733L77.5659 17.981L78.374 17.392ZM80.422 36.656L79.4473 36.4326L79.445 36.4423L79.443 36.452L80.422 36.656ZM78.054 42.032L77.254 41.432L77.2513 41.4357L78.054 42.032ZM73.318 45.552L73.6928 46.4792L73.7026 46.4751L73.318 45.552ZM60.262 46.512L60.1772 47.5084L60.179 47.5085L60.262 46.512ZM54.31 45.744L54.1139 46.7246L54.1262 46.7271L54.1387 46.7292L54.31 45.744ZM49.446 44.272H48.446V44.9176L49.0344 45.1834L49.446 44.272ZM49.446 1.2V0.199997H48.446V1.2H49.446ZM58.918 1.2H59.918V0.199997H58.918V1.2ZM58.918 11.44H57.918V11.4561L57.9185 11.4722L58.918 11.44ZM58.79 15.28L59.7843 15.3865L59.7847 15.3829L58.79 15.28ZM58.15 18.8L57.182 18.549L56.2604 22.1038L58.8571 19.5071L58.15 18.8ZM63.334 15.024L62.8868 14.1295L62.8789 14.1336L63.334 15.024ZM62.182 21.744L62.5987 22.6531L62.6067 22.6494L62.6147 22.6455L62.182 21.744ZM58.854 23.6L58.3132 22.7588L57.854 23.054V23.6H58.854ZM58.854 39.344H57.854V40.1638L58.6579 40.3246L58.854 39.344ZM62.246 39.856L62.1395 40.8503L62.1571 40.8522L62.1748 40.8535L62.246 39.856ZM65.382 39.92L65.3526 38.9204L65.3435 38.9207L65.3344 38.9211L65.382 39.92ZM68.838 39.024L69.383 39.8625L69.3927 39.856L68.838 39.024ZM70.758 36.016L71.7228 36.2791L71.7247 36.2719L70.758 36.016ZM71.398 30L72.3979 30.0167L72.3982 29.9992L72.3978 29.9818L71.398 30ZM70.822 24.56L69.8466 24.7803L69.8508 24.7991L69.8558 24.8177L70.822 24.56ZM69.158 21.808L68.5933 22.6333L68.6085 22.6437L68.624 22.6535L69.158 21.808ZM69.414 14.552C73.39 14.552 76.0099 15.7586 77.5548 17.9655L79.1932 16.8185C77.1541 13.9054 73.8006 12.552 69.414 12.552V14.552ZM77.5659 17.981C79.2067 20.2323 80.126 24.1428 80.126 29.936H82.126C82.126 24.0385 81.2107 19.5863 79.1821 16.803L77.5659 17.981ZM80.126 29.936C80.126 32.3043 79.8974 34.4683 79.4473 36.4326L81.3967 36.8794C81.8852 34.7477 82.126 32.4317 82.126 29.936H80.126ZM79.443 36.452C79.0435 38.3695 78.3104 40.0235 77.254 41.432L78.854 42.632C80.1016 40.9685 80.9471 39.0385 81.401 36.86L79.443 36.452ZM77.2513 41.4357C76.2684 42.7588 74.8473 43.8314 72.9334 44.6289L73.7026 46.4751C75.8847 45.5659 77.6209 44.2919 78.8567 42.6283L77.2513 41.4357ZM72.9432 44.6249C71.0984 45.3707 68.6568 45.768 65.574 45.768V47.768C68.8058 47.768 71.5269 47.3547 73.6928 46.4791L72.9432 44.6249ZM65.574 45.768C64.1165 45.768 62.3749 45.6846 60.345 45.5155L60.179 47.5085C62.2451 47.6807 64.0449 47.768 65.574 47.768V45.768ZM60.3468 45.5156C58.3702 45.3474 56.415 45.0951 54.4813 44.7588L54.1387 46.7292C56.1303 47.0756 58.1432 47.3353 60.1772 47.5084L60.3468 45.5156ZM54.5061 44.7634C52.6364 44.3895 51.0921 43.9182 49.8576 43.3606L49.0344 45.1834C50.4452 45.8205 52.1436 46.3305 54.1139 46.7246L54.5061 44.7634ZM50.446 44.272V1.2H48.446V44.272H50.446ZM49.446 2.2H58.918V0.199997H49.446V2.2ZM57.918 1.2V11.44H59.918V1.2H57.918ZM57.9185 11.4722C57.9598 12.7526 57.9184 13.9874 57.7953 15.1771L59.7847 15.3829C59.9176 14.0979 59.9615 12.7727 59.9175 11.4078L57.9185 11.4722ZM57.7957 15.1735C57.6729 16.3199 57.4683 17.4449 57.182 18.549L59.118 19.051C59.4291 17.8511 59.6511 16.6295 59.7843 15.3865L57.7957 15.1735ZM58.8571 19.5071C60.3198 18.0445 61.9629 16.8478 63.7891 15.9144L62.8789 14.1336C60.8651 15.1628 59.0522 16.4835 57.4429 18.0929L58.8571 19.5071ZM63.7812 15.9184C65.6121 15.003 67.4863 14.552 69.414 14.552V12.552C67.1604 12.552 64.9812 13.0824 62.8868 14.1296L63.7812 15.9184ZM65.638 19.976C64.2579 19.976 62.9572 20.2627 61.7493 20.8425L62.6147 22.6455C63.5401 22.2013 64.5434 21.976 65.638 21.976V19.976ZM61.7653 20.8349C60.6891 21.3282 59.5379 21.9715 58.3132 22.7588L59.3948 24.4412C60.5594 23.6925 61.6269 23.0984 62.5987 22.6531L61.7653 20.8349ZM57.854 23.6V39.344H59.854V23.6H57.854ZM58.6579 40.3246C59.7571 40.5444 60.9178 40.7194 62.1395 40.8503L62.3525 38.8617C61.1849 38.7366 60.0843 38.5702 59.0501 38.3634L58.6579 40.3246ZM62.1748 40.8535C63.3968 40.9407 64.4834 40.9639 65.4296 40.9189L65.3344 38.9211C64.4886 38.9614 63.4846 38.9419 62.3172 38.8585L62.1748 40.8535ZM65.4114 40.9196C66.9714 40.8737 68.3237 40.551 69.383 39.8624L68.293 38.1856C67.6456 38.6064 66.6939 38.881 65.3526 38.9204L65.4114 40.9196ZM69.3927 39.856C70.5514 39.0836 71.298 37.8368 71.7228 36.2791L69.7932 35.7529C69.45 37.0112 68.9166 37.7697 68.2833 38.1919L69.3927 39.856ZM71.7247 36.2719C72.1389 34.7073 72.3547 32.6093 72.3979 30.0167L70.3981 29.9833C70.356 32.5107 70.1451 34.4234 69.7913 35.7601L71.7247 36.2719ZM72.3978 29.9818C72.3546 27.6061 72.1605 25.6984 71.7882 24.3023L69.8558 24.8177C70.1662 25.9816 70.356 27.7005 70.3982 30.0182L72.3978 29.9818ZM71.7974 24.3397C71.4648 22.8667 70.806 21.6661 69.692 20.9625L68.624 22.6535C69.1313 22.9739 69.5818 23.608 69.8466 24.7803L71.7974 24.3397ZM69.7227 20.9827C68.6761 20.2666 67.2704 19.976 65.638 19.976V21.976C67.0776 21.976 68.0186 22.2401 68.5933 22.6333L69.7227 20.9827ZM114.006 15.216L113.585 16.123L113.592 16.1261L113.598 16.1291L114.006 15.216ZM119.126 20.528L118.202 20.9104L118.206 20.92L118.21 20.9297L119.126 20.528ZM119.126 39.984L118.21 39.5823L118.207 39.5901L119.126 39.984ZM114.006 45.168L114.414 46.0811L114.414 46.0811L114.006 45.168ZM94.934 45.168L95.3416 44.2549L95.3416 44.2549L94.934 45.168ZM89.75 39.984L88.8284 40.3721L88.8325 40.3819L88.8369 40.3917L89.75 39.984ZM89.75 20.528L88.8316 20.1322L88.8284 20.1399L89.75 20.528ZM94.934 15.216L95.3416 16.1291L95.3484 16.1261L95.3551 16.123L94.934 15.216ZM100.566 21.232L100.057 20.3711L100.048 20.3763L100.04 20.3817L100.566 21.232ZM98.646 24.24L99.6108 24.5031L99.6127 24.4959L98.646 24.24ZM98.646 36.208L99.6108 35.9449L99.6108 35.9449L98.646 36.208ZM100.566 39.152L100.04 40.0023L100.063 40.0167L100.087 40.0299L100.566 39.152ZM108.31 39.152L108.806 40.0202L108.812 40.0166L108.819 40.0129L108.31 39.152ZM110.294 36.208L109.329 35.9449L109.329 35.9449L110.294 36.208ZM110.294 24.24L109.327 24.4959L109.329 24.5031L110.294 24.24ZM108.31 21.232L107.784 22.0823L107.792 22.0877L107.801 22.0929L108.31 21.232ZM104.47 14.552C108.36 14.552 111.377 15.098 113.585 16.123L114.427 14.309C111.856 13.1154 108.516 12.552 104.47 12.552V14.552ZM113.598 16.1291C115.748 17.0888 117.273 18.666 118.202 20.9104L120.05 20.1456C118.931 17.4407 117.043 15.4766 114.414 14.3029L113.598 16.1291ZM118.21 20.9297C119.2 23.1863 119.726 26.2753 119.726 30.256H121.726C121.726 26.13 121.185 22.7337 120.042 20.1263L118.21 20.9297ZM119.726 30.256C119.726 34.2367 119.2 37.3257 118.21 39.5823L120.042 40.3857C121.185 37.7783 121.726 34.382 121.726 30.256H119.726ZM118.207 39.5901C117.283 41.7465 115.76 43.29 113.598 44.2549L114.414 46.0811C117.031 44.9127 118.921 43.0002 120.045 40.3779L118.207 39.5901ZM113.598 44.2549C111.386 45.2425 108.363 45.768 104.47 45.768V47.768C108.513 47.768 111.847 47.2269 114.414 46.0811L113.598 44.2549ZM104.47 45.768C100.577 45.768 97.5539 45.2425 95.3416 44.2549L94.5263 46.0811C97.0928 47.2269 100.427 47.768 104.47 47.768V45.768ZM95.3416 44.2549C93.1773 43.2887 91.6293 41.7407 90.6631 39.5763L88.8369 40.3917C90.004 43.006 91.912 44.914 94.5263 46.0811L95.3416 44.2549ZM90.6716 39.5959C89.7195 37.3346 89.214 34.2402 89.214 30.256H87.214C87.214 34.3785 87.7325 37.7694 88.8284 40.3721L90.6716 39.5959ZM89.214 30.256C89.214 26.2718 89.7195 23.1774 90.6716 20.9161L88.8284 20.1399C87.7325 22.7426 87.214 26.1335 87.214 30.256H89.214ZM90.6683 20.9238C91.639 18.672 93.1888 17.0902 95.3416 16.1291L94.5263 14.3029C91.9005 15.4751 89.9944 17.4347 88.8317 20.1322L90.6683 20.9238ZM95.3551 16.123C97.5629 15.098 100.58 14.552 104.47 14.552V12.552C100.424 12.552 97.0838 13.1154 94.5129 14.309L95.3551 16.123ZM104.47 19.4C102.714 19.4 101.211 19.6895 100.057 20.3711L101.075 22.0929C101.799 21.6651 102.898 21.4 104.47 21.4V19.4ZM100.04 20.3817C98.8489 21.1188 98.101 22.3911 97.6793 23.9841L99.6127 24.4959C99.959 23.1876 100.491 22.4545 101.092 22.0823L100.04 20.3817ZM97.6812 23.9769C97.2624 25.5126 97.07 27.6222 97.07 30.256H99.07C99.07 27.6844 99.2616 25.7834 99.6108 24.5031L97.6812 23.9769ZM97.07 30.256C97.07 32.8488 97.2627 34.9363 97.6812 36.4711L99.6108 35.9449C99.2613 34.6637 99.07 32.7832 99.07 30.256H97.07ZM97.6812 36.4711C98.106 38.0285 98.8574 39.2704 100.04 40.0023L101.092 38.3017C100.483 37.9242 99.954 37.2035 99.6108 35.9449L97.6812 36.4711ZM100.087 40.0299C101.232 40.6546 102.723 40.92 104.47 40.92V38.92C102.889 38.92 101.777 38.6734 101.045 38.2741L100.087 40.0299ZM104.47 40.92C106.212 40.92 107.693 40.6561 108.806 40.0202L107.814 38.2838C107.135 38.6719 106.056 38.92 104.47 38.92V40.92ZM108.819 40.0129C110.049 39.2861 110.83 38.0428 111.259 36.4711L109.329 35.9449C108.99 37.1892 108.449 37.9086 107.801 38.2911L108.819 40.0129ZM111.259 36.4711C111.677 34.9363 111.87 32.8488 111.87 30.256H109.87C109.87 32.7832 109.679 34.6637 109.329 35.9449L111.259 36.4711ZM111.87 30.256C111.87 27.6222 111.678 25.5126 111.259 23.9769L109.329 24.5031C109.678 25.7834 109.87 27.6844 109.87 30.256H111.87ZM111.261 23.9841C110.835 22.3769 110.058 21.1032 108.819 20.3711L107.801 22.0929C108.44 22.4702 108.985 23.2018 109.327 24.4959L111.261 23.9841ZM108.836 20.3817C107.716 19.6879 106.222 19.4 104.47 19.4V21.4C106.046 21.4 107.112 21.6668 107.784 22.0823L108.836 20.3817ZM138.38 14.384H139.38V13.384H138.38V14.384ZM139.212 38L138.505 38.7071L138.505 38.7071L139.212 38ZM145.548 38.256L145.242 37.304L145.242 37.304L145.548 38.256ZM149.836 36.336L150.31 37.2165L150.836 36.9333V36.336H149.836ZM149.836 14.384V13.384H148.836V14.384H149.836ZM159.308 14.384H160.308V13.384H159.308V14.384ZM159.308 46V47H160.308V46H159.308ZM151.884 46L150.9 46.1777L151.048 47H151.884V46ZM151.052 41.392L152.036 41.2143L151.732 39.5318L150.415 40.6214L151.052 41.392ZM144.524 45.488L144.911 46.41L144.911 46.41L144.524 45.488ZM128.972 14.384V13.384H127.972V14.384H128.972ZM137.38 14.384V35.184H139.38V14.384H137.38ZM137.38 35.184C137.38 36.6007 137.669 37.8712 138.505 38.7071L139.919 37.2929C139.646 37.0195 139.38 36.4126 139.38 35.184H137.38ZM138.505 38.7071C139.341 39.543 140.611 39.832 142.028 39.832V37.832C140.799 37.832 140.193 37.5663 139.919 37.2929L138.505 38.7071ZM142.028 39.832C143.293 39.832 144.569 39.621 145.854 39.208L145.242 37.304C144.137 37.659 143.067 37.832 142.028 37.832V39.832ZM145.854 39.208C147.128 38.7985 148.616 38.1285 150.31 37.2165L149.362 35.4555C147.728 36.3355 146.357 36.9455 145.242 37.304L145.854 39.208ZM150.836 36.336V14.384H148.836V36.336H150.836ZM149.836 15.384H159.308V13.384H149.836V15.384ZM158.308 14.384V46H160.308V14.384H158.308ZM159.308 45H151.884V47H159.308V45ZM152.868 45.8223L152.036 41.2143L150.068 41.5697L150.9 46.1777L152.868 45.8223ZM150.415 40.6214C148.254 42.4082 146.161 43.7159 144.137 44.566L144.911 46.41C147.154 45.4681 149.413 44.0452 151.689 42.1626L150.415 40.6214ZM144.137 44.566C142.123 45.4117 140.057 45.832 137.932 45.832V47.832C140.329 47.832 142.658 47.3563 144.911 46.41L144.137 44.566ZM137.932 45.832C135.094 45.832 133.15 45.1377 131.911 43.9253C130.676 42.7168 129.972 40.827 129.972 38.064H127.972C127.972 41.1464 128.761 43.6406 130.513 45.3547C132.26 47.065 134.797 47.832 137.932 47.832V45.832ZM129.972 38.064V14.384H127.972V38.064H129.972ZM128.972 15.384H138.38V13.384H128.972V15.384ZM190.141 14.384H191.141V13.384H190.141V14.384ZM190.141 20.592V21.592H191.141V20.592H190.141ZM181.309 20.592V19.592H180.309V20.592H181.309ZM182.077 38.384L181.37 39.0911L181.386 39.1065L181.402 39.1212L182.077 38.384ZM188.861 39.088L189.849 38.93L189.714 38.088H188.861V39.088ZM189.885 45.488L190.231 46.4263L191.003 46.142L190.873 45.33L189.885 45.488ZM187.005 46.192L186.853 45.2036L186.853 45.2036L187.005 46.192ZM183.677 46.576L183.601 45.5789L183.598 45.5792L183.677 46.576ZM174.205 44.464L173.508 45.1807L173.518 45.1903L173.528 45.1995L174.205 44.464ZM171.837 20.592H172.837V19.592H171.837V20.592ZM166.333 20.592H165.333V21.592H166.333V20.592ZM166.333 14.704L166.287 13.7051L165.333 13.7494V14.704H166.333ZM171.837 14.448L171.884 15.4469L172.837 15.4026V14.448H171.837ZM171.837 5.616V4.616H170.837V5.616H171.837ZM181.309 5.616H182.309V4.616H181.309V5.616ZM181.309 14.384H180.309V15.384H181.309V14.384ZM189.141 14.384V20.592H191.141V14.384H189.141ZM190.141 19.592H181.309V21.592H190.141V19.592ZM180.309 20.592V35.888H182.309V20.592H180.309ZM180.309 35.888C180.309 37.154 180.586 38.3065 181.37 39.0911L182.785 37.6769C182.545 37.4375 182.309 36.926 182.309 35.888H180.309ZM181.402 39.1212C182.201 39.8539 183.423 40.088 184.765 40.088V38.088C183.548 38.088 182.978 37.8527 182.753 37.6468L181.402 39.1212ZM184.765 40.088H188.861V38.088H184.765V40.088ZM187.874 39.246L188.898 45.646L190.873 45.33L189.849 38.93L187.874 39.246ZM189.54 44.5497C188.807 44.8196 187.915 45.0403 186.853 45.2036L187.158 47.1804C188.314 47.0024 189.342 46.7538 190.231 46.4263L189.54 44.5497ZM186.853 45.2036C185.769 45.3705 184.685 45.4956 183.601 45.5789L183.754 47.5731C184.889 47.4858 186.023 47.3549 187.158 47.1804L186.853 45.2036ZM183.598 45.5792C182.548 45.6632 181.659 45.704 180.925 45.704V47.704C181.728 47.704 182.673 47.6595 183.757 47.5728L183.598 45.5792ZM180.925 45.704C178.241 45.704 176.27 45.006 174.883 43.7285L173.528 45.1995C175.384 46.9086 177.893 47.704 180.925 47.704V45.704ZM174.903 43.7473C173.565 42.4456 172.837 40.5774 172.837 38H170.837C170.837 40.9693 171.689 43.4104 173.508 45.1807L174.903 43.7473ZM172.837 38V20.592H170.837V38H172.837ZM171.837 19.592H166.333V21.592H171.837V19.592ZM167.333 20.592V14.704H165.333V20.592H167.333ZM166.38 15.7029L171.884 15.4469L171.791 13.4491L166.287 13.7051L166.38 15.7029ZM172.837 14.448V5.616H170.837V14.448H172.837ZM171.837 6.616H181.309V4.616H171.837V6.616ZM180.309 5.616V14.384H182.309V5.616H180.309ZM181.309 15.384H190.141V13.384H181.309V15.384ZM222.203 14.384H223.203V13.384H222.203V14.384ZM223.035 38L222.327 38.7071L222.327 38.7071L223.035 38ZM229.371 38.256L229.064 37.304L229.064 37.304L229.371 38.256ZM233.659 36.336L234.133 37.2165L234.659 36.9333V36.336H233.659ZM233.659 14.384V13.384H232.659V14.384H233.659ZM243.131 14.384H244.131V13.384H243.131V14.384ZM243.131 46V47H244.131V46H243.131ZM235.707 46L234.722 46.1777L234.871 47H235.707V46ZM234.875 41.392L235.859 41.2143L235.555 39.5318L234.237 40.6214L234.875 41.392ZM228.347 45.488L228.734 46.41L228.734 46.41L228.347 45.488ZM212.795 14.384V13.384H211.795V14.384H212.795ZM221.203 14.384V35.184H223.203V14.384H221.203ZM221.203 35.184C221.203 36.6007 221.491 37.8712 222.327 38.7071L223.742 37.2929C223.468 37.0195 223.203 36.4126 223.203 35.184H221.203ZM222.327 38.7071C223.163 39.543 224.434 39.832 225.851 39.832V37.832C224.622 37.832 224.015 37.5663 223.742 37.2929L222.327 38.7071ZM225.851 39.832C227.115 39.832 228.392 39.621 229.677 39.208L229.064 37.304C227.96 37.659 226.89 37.832 225.851 37.832V39.832ZM229.677 39.208C230.951 38.7985 232.439 38.1285 234.133 37.2165L233.184 35.4555C231.55 36.3355 230.18 36.9455 229.064 37.304L229.677 39.208ZM234.659 36.336V14.384H232.659V36.336H234.659ZM233.659 15.384H243.131V13.384H233.659V15.384ZM242.131 14.384V46H244.131V14.384H242.131ZM243.131 45H235.707V47H243.131V45ZM236.691 45.8223L235.859 41.2143L233.89 41.5697L234.722 46.1777L236.691 45.8223ZM234.237 40.6214C232.076 42.4082 229.983 43.7159 227.959 44.566L228.734 46.41C230.976 45.4681 233.235 44.0452 235.512 42.1626L234.237 40.6214ZM227.959 44.566C225.946 45.4117 223.88 45.832 221.755 45.832V47.832C224.152 47.832 226.481 47.3563 228.734 46.41L227.959 44.566ZM221.755 45.832C218.917 45.832 216.973 45.1377 215.734 43.9253C214.499 42.7168 213.795 40.827 213.795 38.064H211.795C211.795 41.1464 212.583 43.6406 214.335 45.3547C216.083 47.065 218.619 47.832 221.755 47.832V45.832ZM213.795 38.064V14.384H211.795V38.064H213.795ZM212.795 15.384H222.203V13.384H212.795V15.384ZM264.812 13.552L264.84 12.5524L264.826 12.552H264.812V13.552ZM269.804 13.744L269.756 14.7429L269.756 14.7429L269.804 13.744ZM275.052 14.128L274.952 15.123L275.052 14.128ZM279.596 14.768L280.59 14.8761L280.69 13.9611L279.786 13.7862L279.596 14.768ZM278.956 20.656L278.935 21.6558L279.851 21.6749L279.95 20.7641L278.956 20.656ZM272.748 20.528L272.768 19.5282L272.768 19.5282L272.748 20.528ZM261.676 20.784L261.433 19.8138L261.422 19.8169L261.676 20.784ZM261.356 24.816L260.909 25.7104L260.921 25.7165L260.933 25.7222L261.356 24.816ZM264.62 25.84L264.377 26.8102L264.386 26.8123L264.62 25.84ZM272.876 27.824L273.126 26.8557L273.118 26.8536L273.11 26.8517L272.876 27.824ZM278.764 30.896L278.034 31.5799L278.04 31.5857L278.045 31.5914L278.764 30.896ZM279.148 42.992L278.339 42.4038L278.333 42.412L278.328 42.4202L279.148 42.992ZM274.476 45.936L274.714 46.9073L274.721 46.9056L274.728 46.9038L274.476 45.936ZM260.396 46.512L260.445 45.5132L260.396 46.512ZM251.884 45.552L250.889 45.4546L250.798 46.3848L251.72 46.5384L251.884 45.552ZM252.46 39.664L252.531 38.6665L251.56 38.5971L251.465 39.5666L252.46 39.664ZM257.26 39.856L257.239 40.8558L257.249 40.856H257.26V39.856ZM263.532 39.792V38.792H263.522L263.512 38.7922L263.532 39.792ZM268.524 39.664L268.598 40.6613L268.616 40.6599L268.634 40.6579L268.524 39.664ZM270.892 38.896L270.259 38.122L270.241 38.137L270.223 38.1527L270.892 38.896ZM270.508 35.248L270.082 36.1528L270.104 36.1633L270.127 36.1727L270.508 35.248ZM267.052 34.096L267.313 33.1306L267.303 33.1279L267.293 33.1254L267.052 34.096ZM259.052 32.112L258.793 33.078L258.802 33.0804L258.811 33.0826L259.052 32.112ZM252.908 28.656L252.087 29.2264L252.094 29.2372L252.908 28.656ZM254.316 15.6L253.761 14.7679L253.753 14.7734L254.316 15.6ZM264.784 14.5516C266.313 14.5941 267.97 14.6578 269.756 14.7429L269.852 12.7451C268.054 12.6595 266.383 12.5953 264.84 12.5524L264.784 14.5516ZM269.756 14.7429C271.532 14.8274 273.264 14.9542 274.952 15.123L275.152 13.133C273.427 12.9605 271.66 12.8313 269.852 12.7451L269.756 14.7429ZM274.952 15.123C276.637 15.2914 278.12 15.5009 279.406 15.7498L279.786 13.7862C278.427 13.5231 276.881 13.3059 275.152 13.133L274.952 15.123ZM278.602 14.6599L277.962 20.5479L279.95 20.7641L280.59 14.8761L278.602 14.6599ZM278.977 19.6562C276.929 19.6135 274.859 19.5709 272.768 19.5282L272.728 21.5278C274.818 21.5705 276.887 21.6131 278.935 21.6558L278.977 19.6562ZM272.768 19.5282C270.672 19.4854 268.659 19.464 266.732 19.464V21.464C268.645 21.464 270.643 21.4853 272.728 21.5278L272.768 19.5282ZM266.732 19.464C264.232 19.464 262.425 19.566 261.433 19.8139L261.919 21.7541C262.634 21.5753 264.198 21.464 266.732 21.464V19.464ZM261.422 19.8169C260.778 19.9863 260.249 20.3648 259.904 20.9455C259.577 21.4958 259.46 22.1525 259.46 22.832H261.46C261.46 22.3595 261.545 22.0989 261.624 21.9665C261.684 21.8645 261.763 21.7951 261.93 21.7511L261.422 19.8169ZM259.46 22.832C259.46 24.0113 259.811 25.1614 260.909 25.7104L261.803 23.9216C261.707 23.8733 261.46 23.7007 261.46 22.832H259.46ZM260.933 25.7222C261.667 26.0647 262.836 26.4249 264.377 26.8101L264.863 24.8699C263.332 24.4871 262.325 24.1646 261.779 23.9098L260.933 25.7222ZM264.386 26.8123L272.642 28.7963L273.11 26.8517L264.854 24.8677L264.386 26.8123ZM272.626 28.7923C275.167 29.4481 276.931 30.4027 278.034 31.5799L279.494 30.2121C278.037 28.6586 275.875 27.5652 273.126 26.8557L272.626 28.7923ZM278.045 31.5914C279.076 32.6568 279.684 34.3648 279.684 36.912H281.684C281.684 34.0832 281.012 31.7805 279.483 30.2006L278.045 31.5914ZM279.684 36.912C279.684 39.4494 279.189 41.2348 278.339 42.4038L279.957 43.5802C281.155 41.9332 281.684 39.6652 281.684 36.912H279.684ZM278.328 42.4202C277.518 43.5824 276.194 44.456 274.224 44.9682L274.728 46.9038C277.025 46.3066 278.816 45.2176 279.968 43.5638L278.328 42.4202ZM274.238 44.9647C272.256 45.4501 269.614 45.704 266.284 45.704V47.704C269.695 47.704 272.514 47.4459 274.714 46.9073L274.238 44.9647ZM266.284 45.704C264.987 45.704 263.044 45.641 260.445 45.5132L260.347 47.5108C262.953 47.639 264.936 47.704 266.284 47.704V45.704ZM260.445 45.5132C257.888 45.3874 255.089 45.0724 252.048 44.5656L251.72 46.5384C254.823 47.0556 257.699 47.3806 260.347 47.5108L260.445 45.5132ZM252.879 45.6494L253.455 39.7614L251.465 39.5666L250.889 45.4546L252.879 45.6494ZM252.389 40.6615C253.607 40.7485 255.226 40.813 257.239 40.8558L257.281 38.8562C255.283 38.8137 253.702 38.7502 252.531 38.6665L252.389 40.6615ZM257.26 40.856C259.315 40.856 261.412 40.8346 263.552 40.7918L263.512 38.7922C261.385 38.8347 259.301 38.856 257.26 38.856V40.856ZM263.532 40.792C265.715 40.792 267.409 40.7494 268.598 40.6613L268.45 38.6667C267.335 38.7493 265.701 38.792 263.532 38.792V40.792ZM268.634 40.6579C269.819 40.5263 270.885 40.2472 271.561 39.6393L270.223 38.1527C270.045 38.3128 269.533 38.5457 268.414 38.6701L268.634 40.6579ZM271.525 39.67C272.287 39.0471 272.596 38.149 272.596 37.168H270.596C270.596 37.723 270.436 37.9769 270.259 38.122L271.525 39.67ZM272.596 37.168C272.596 36.5602 272.484 35.9713 272.194 35.459C271.895 34.9311 271.444 34.5517 270.889 34.3233L270.127 36.1727C270.298 36.2429 270.39 36.3329 270.454 36.445C270.526 36.5727 270.596 36.7944 270.596 37.168H272.596ZM270.934 34.3432C270.125 33.9626 268.903 33.5603 267.313 33.1306L266.791 35.0614C268.359 35.4851 269.44 35.8507 270.082 36.1528L270.934 34.3432ZM267.293 33.1254L259.293 31.1414L258.811 33.0826L266.811 35.0666L267.293 33.1254ZM259.311 31.146C256.361 30.3566 254.587 29.2856 253.722 28.0748L252.094 29.2372C253.363 31.013 255.685 32.2461 258.793 33.078L259.311 31.146ZM253.729 28.0856C252.815 26.7686 252.308 24.9415 252.308 22.512H250.308C250.308 25.2025 250.868 27.4714 252.087 29.2264L253.729 28.0856ZM252.308 22.512C252.308 19.4774 253.235 17.5458 254.879 16.4266L253.753 14.7734C251.386 16.3848 250.308 19.0613 250.308 22.512H252.308ZM254.871 16.432C256.657 15.2413 259.896 14.552 264.812 14.552V12.552C259.83 12.552 256.071 13.228 253.761 14.7679L254.871 16.432Z" fill="#EBEBEB"/>
</svg>
