<svg width="278" height="46" viewBox="0 0 278 46" fill="none" xmlns="http://www.w3.org/2000/svg">
<path d="M28.416 33.416H13.248L10.048 45H0.064L12.8 3.4C12.9707 2.632 13.376 2.01333 14.016 1.544C14.656 1.07466 15.3813 0.839996 16.192 0.839996H25.408C26.2613 0.839996 26.9867 1.07466 27.584 1.544C28.224 1.97066 28.6293 2.58933 28.8 3.4L41.536 45H31.616L28.416 33.416ZM26.304 25.864L22.592 12.36C22.08 10.2267 21.7813 8.84 21.696 8.2H19.968L19.008 12.36L15.296 25.864H26.304ZM67.225 12.552C71.321 12.552 74.265 13.832 76.057 16.392C77.8917 18.9093 78.809 23.0907 78.809 28.936C78.809 34.3547 77.6997 38.5147 75.481 41.416C73.2623 44.3173 69.2303 45.768 63.385 45.768C60.825 45.768 57.945 45.5547 54.745 45.128C51.5877 44.7013 49.113 44.104 47.321 43.336V0.199997H56.793L56.857 10.248C56.857 13.2347 56.5583 15.7307 55.961 17.736C57.5397 16.1147 59.289 14.856 61.209 13.96C63.1717 13.0213 65.177 12.552 67.225 12.552ZM62.489 38.728C64.153 38.728 65.4543 38.472 66.393 37.96C67.3317 37.4053 68.0143 36.424 68.441 35.016C68.8677 33.608 69.081 31.6027 69.081 29C69.081 26.6107 68.9317 24.7973 68.633 23.56C68.3343 22.3227 67.7797 21.448 66.969 20.936C66.201 20.3813 65.0277 20.104 63.449 20.104C62.3397 20.104 61.2943 20.3173 60.313 20.744C59.3743 21.1707 58.1797 21.8533 56.729 22.792L56.793 38.088C58.5423 38.5147 60.441 38.728 62.489 38.728ZM102.156 12.552C106.124 12.552 109.281 13.1067 111.628 14.216C113.975 15.3253 115.681 17.096 116.748 19.528C117.815 21.9173 118.348 25.16 118.348 29.256C118.348 33.352 117.815 36.5947 116.748 38.984C115.681 41.3733 113.975 43.1227 111.628 44.232C109.281 45.2987 106.124 45.832 102.156 45.832C98.1453 45.832 94.9667 45.2987 92.62 44.232C90.2733 43.1227 88.5667 41.3733 87.5 38.984C86.4333 36.5947 85.9 33.352 85.9 29.256C85.9 25.16 86.4333 21.896 87.5 19.464C88.5667 17.032 90.2733 15.2827 92.62 14.216C94.9667 13.1067 98.1453 12.552 102.156 12.552ZM102.156 19.656C100.449 19.656 99.148 19.9333 98.252 20.488C97.356 21 96.716 21.9387 96.332 23.304C95.9907 24.6693 95.82 26.6533 95.82 29.256C95.82 31.816 95.9907 33.7787 96.332 35.144C96.716 36.4667 97.356 37.4053 98.252 37.96C99.148 38.472 100.449 38.728 102.156 38.728C103.82 38.728 105.1 38.472 105.996 37.96C106.892 37.4053 107.511 36.4667 107.852 35.144C108.236 33.7787 108.428 31.816 108.428 29.256C108.428 26.6533 108.236 24.6693 107.852 23.304C107.511 21.9387 106.892 21 105.996 20.488C105.1 19.9333 103.82 19.656 102.156 19.656ZM156.679 13.448V45H149.191L148.487 40.648C146.311 42.3973 144.156 43.6987 142.023 44.552C139.889 45.4053 137.692 45.832 135.431 45.832C129.5 45.832 126.535 42.9093 126.535 37.064V13.448H136.007V34.184C135.964 35.5493 136.199 36.5093 136.711 37.064C137.223 37.6187 138.119 37.896 139.399 37.896C140.508 37.896 141.66 37.704 142.855 37.32C144.092 36.8933 145.564 36.2107 147.271 35.272V13.448H156.679ZM178.684 19.784V34.696C178.684 35.8907 178.94 36.7227 179.452 37.192C179.964 37.6613 180.86 37.896 182.14 37.896H186.172L187.196 44.488C186.087 44.872 184.636 45.1707 182.844 45.384C181.095 45.64 179.58 45.768 178.3 45.768C175.442 45.768 173.223 44.9787 171.644 43.4C170.066 41.7787 169.276 39.5387 169.276 36.68V19.784H163.708V13.768L169.276 13.448V4.616H178.684V13.448H187.452V19.784H178.684ZM240.376 13.448V45H232.888L232.184 40.648C230.008 42.3973 227.853 43.6987 225.72 44.552C223.587 45.4053 221.389 45.832 219.128 45.832C213.197 45.832 210.232 42.9093 210.232 37.064V13.448H219.704V34.184C219.661 35.5493 219.896 36.5093 220.408 37.064C220.92 37.6187 221.816 37.896 223.096 37.896C224.205 37.896 225.357 37.704 226.552 37.32C227.789 36.8933 229.261 36.2107 230.968 35.272V13.448H240.376ZM261.998 12.552C264.387 12.5947 266.947 12.7227 269.678 12.936C272.409 13.1493 274.713 13.4267 276.59 13.768L275.95 19.848C270.574 19.7627 266.521 19.72 263.79 19.72C261.87 19.72 260.526 19.7627 259.758 19.848C259.033 19.8907 258.499 20.0613 258.158 20.36C257.859 20.616 257.71 21.1067 257.71 21.832C257.71 22.6427 257.923 23.1973 258.35 23.496C258.777 23.752 259.374 23.9867 260.142 24.2C260.953 24.4133 261.529 24.5627 261.87 24.648L269.934 26.824C272.75 27.6347 274.755 28.7227 275.95 30.088C277.145 31.4107 277.742 33.3947 277.742 36.04C277.742 38.6 277.251 40.584 276.27 41.992C275.289 43.4 273.774 44.3813 271.726 44.936C269.678 45.448 266.862 45.704 263.278 45.704C258.158 45.704 253.443 45.3413 249.134 44.616L249.71 38.472C251.246 38.5573 254.894 38.6 260.654 38.6C262.915 38.6 264.579 38.5573 265.646 38.472C266.755 38.344 267.523 38.1093 267.95 37.768C268.377 37.4267 268.59 36.9147 268.59 36.232C268.59 35.464 268.355 34.9307 267.886 34.632C267.417 34.2907 266.755 34.0133 265.902 33.8C265.049 33.544 264.451 33.3733 264.11 33.288L256.238 31.176C253.337 30.3227 251.331 29.1707 250.222 27.72C249.113 26.2267 248.558 24.1787 248.558 21.576C248.558 19.3573 248.985 17.608 249.838 16.328C250.734 15.0053 252.142 14.0453 254.062 13.448C256.025 12.8507 258.67 12.552 261.998 12.552Z" fill="#FDFEFF"/>
</svg>
