<svg width="26" height="26" viewBox="0 0 26 26" fill="none" xmlns="http://www.w3.org/2000/svg">
<path d="M10.5625 3.25H13.9521C14.383 3.25007 14.7961 3.42121 15.1008 3.72582L22.2742 10.8992C22.5788 11.2039 22.7499 11.617 22.75 12.0479V21.9375C22.75 22.584 22.4932 23.204 22.0361 23.6611C21.579 24.1182 20.959 24.375 20.3125 24.375H9.75C9.10353 24.375 8.48355 24.1182 8.02643 23.6611C7.56931 23.204 7.3125 22.584 7.3125 21.9375V15.4375" stroke="#FDFEFF" stroke-linecap="round" stroke-linejoin="round"/>
<path d="M14.625 3.65625V9.75C14.625 10.181 14.7962 10.5943 15.101 10.899C15.4057 11.2038 15.819 11.375 16.25 11.375H22.3438" stroke="#FDFEFF" stroke-linecap="round" stroke-linejoin="round"/>
<path d="M8.125 4.0625V11.7812C8.12712 11.9419 8.09704 12.1013 8.03654 12.2501C7.97604 12.399 7.88635 12.5342 7.77275 12.6478C7.65916 12.7613 7.52396 12.851 7.37514 12.9115C7.22632 12.972 7.06688 13.0021 6.90625 13C6.29688 13 5.6875 12.5379 5.6875 11.7812V4.46875C5.6875 2.91535 6.52895 1.625 8.125 1.625C9.72105 1.625 10.5625 2.88437 10.5625 4.43727V11.4832C10.5625 13.6668 9.14977 15.4375 6.90625 15.4375C4.66273 15.4375 3.25 13.6673 3.25 11.4832V7.3125" stroke="#FDFEFF" stroke-miterlimit="10" stroke-linecap="round"/>
</svg>
