<svg width="41" height="41" viewBox="0 0 41 41" fill="none" xmlns="http://www.w3.org/2000/svg">
<path d="M20.5 5.125C12.0066 5.125 5.125 12.0066 5.125 20.5C5.125 28.9934 12.0066 35.875 20.5 35.875C28.9934 35.875 35.875 28.9934 35.875 20.5C35.875 12.0066 28.9934 5.125 20.5 5.125ZM20.5 7.6875C22.1845 7.68072 23.8536 8.0075 25.4111 8.64899C26.9687 9.29047 28.3838 10.234 29.5749 11.4251C30.766 12.6162 31.7095 14.0313 32.351 15.5889C32.9925 17.1464 33.3193 18.8155 33.3125 20.5C33.3193 22.1845 32.9925 23.8536 32.351 25.4111C31.7095 26.9687 30.766 28.3838 29.5749 29.5749C28.3838 30.766 26.9687 31.7095 25.4111 32.351C23.8536 32.9925 22.1845 33.3193 20.5 33.3125C18.8155 33.3193 17.1464 32.9925 15.5889 32.351C14.0313 31.7095 12.6162 30.766 11.4251 29.5749C10.234 28.3838 9.29047 26.9687 8.64899 25.4111C8.0075 23.8536 7.68072 22.1845 7.6875 20.5C7.68072 18.8155 8.0075 17.1464 8.64899 15.5889C9.29047 14.0313 10.234 12.6162 11.4251 11.4251C12.6162 10.234 14.0313 9.29047 15.5889 8.64899C17.1464 8.0075 18.8155 7.68072 20.5 7.6875ZM18.4577 13.7734C15.9657 13.7734 13.7939 14.0041 11.7311 14.6549C11.1853 14.7638 10.7305 15.1751 10.7305 15.9362C10.7305 16.696 11.2917 17.3673 12.0514 17.2559C12.3769 17.2559 12.5972 17.1367 12.8125 17.1367C14.5486 16.7011 16.5063 16.4961 18.4577 16.4961C22.2515 16.4961 26.1452 17.3417 28.7474 18.8587C29.0728 18.9689 29.183 19.0983 29.5085 19.0983C30.2695 19.0983 30.8 18.5384 30.9102 17.7773C30.9102 17.1265 30.5847 16.7113 30.1491 16.4961C26.896 14.6537 22.5769 13.7734 18.4577 13.7734ZM18.0977 18.5384C15.8209 18.5384 14.1988 18.8638 12.5716 19.2995C12.0322 19.5134 11.7311 19.8504 11.7311 20.5C11.7311 21.0407 12.1616 21.5814 12.8125 21.5814C13.0329 21.5814 13.1277 21.5711 13.4531 21.4609C14.6447 21.1355 16.2808 20.9408 18.0182 20.9408C21.5955 20.9408 24.7089 21.812 26.987 23.2227C27.2009 23.3328 27.4226 23.4225 27.7467 23.4225C28.3976 23.4225 28.8281 22.8716 28.8281 22.222C28.8281 21.7864 28.6231 21.3559 28.1875 21.1406C25.3687 19.4045 21.7864 18.5384 18.0977 18.5384ZM18.4577 23.2227C16.6165 23.2227 14.8702 23.4277 13.1328 23.8633C12.6972 23.9735 12.3718 24.2835 12.3718 24.8242C12.3718 25.2598 12.7126 25.7057 13.2533 25.7057C13.3634 25.7057 13.6786 25.5853 13.8939 25.5853C15.3512 25.2454 16.8421 25.0705 18.3385 25.0638C21.0458 25.0638 23.5225 25.7147 25.5853 26.9062C25.8057 27.0164 26.0504 27.1061 26.2656 27.1061C26.7013 27.1061 27.1164 26.7807 27.2266 26.3463C27.2266 25.8005 26.9908 25.5994 26.6654 25.3854C24.2784 23.9735 21.4904 23.2227 18.4577 23.2227Z" fill="url(#paint0_linear)"/>
<defs>
<linearGradient id="paint0_linear" x1="20.5" y1="5.125" x2="20.5" y2="35.875" gradientUnits="userSpaceOnUse">
<stop offset="0.552083" stop-color="#DBC49B"/>
<stop offset="1" stop-color="#BA9261"/>
</linearGradient>
</defs>
</svg>
