<svg width="33" height="33" viewBox="0 0 33 33" fill="none" xmlns="http://www.w3.org/2000/svg">
<path d="M16.5 4.125C9.66384 4.125 4.125 9.66384 4.125 16.5C4.125 23.3362 9.66384 28.875 16.5 28.875C23.3362 28.875 28.875 23.3362 28.875 16.5C28.875 9.66384 23.3362 4.125 16.5 4.125ZM16.5 6.1875C17.8558 6.18204 19.1992 6.44506 20.4529 6.96138C21.7065 7.4777 22.8455 8.2371 23.8042 9.1958C24.7629 10.1545 25.5223 11.2935 26.0386 12.5471C26.5549 13.8008 26.818 15.1442 26.8125 16.5C26.818 17.8558 26.5549 19.1992 26.0386 20.4529C25.5223 21.7065 24.7629 22.8455 23.8042 23.8042C22.8455 24.7629 21.7065 25.5223 20.4529 26.0386C19.1992 26.5549 17.8558 26.818 16.5 26.8125C15.1442 26.818 13.8008 26.5549 12.5471 26.0386C11.2935 25.5223 10.1545 24.7629 9.1958 23.8042C8.2371 22.8455 7.4777 21.7065 6.96138 20.4529C6.44506 19.1992 6.18204 17.8558 6.1875 16.5C6.18204 15.1442 6.44506 13.8008 6.96138 12.5471C7.4777 11.2935 8.2371 10.1545 9.1958 9.1958C10.1545 8.2371 11.2935 7.4777 12.5471 6.96138C13.8008 6.44506 15.1442 6.18204 16.5 6.1875ZM14.8562 11.0859C12.8504 11.0859 11.1024 11.2716 9.44213 11.7954C9.00281 11.8831 8.63672 12.2141 8.63672 12.8267C8.63672 13.4382 9.08841 13.9786 9.69994 13.8889C9.96187 13.8889 10.1392 13.793 10.3125 13.793C11.7098 13.4423 13.2856 13.2773 14.8562 13.2773C17.9097 13.2773 21.0437 13.958 23.1382 15.179C23.4001 15.2677 23.4888 15.3718 23.7507 15.3718C24.3633 15.3718 24.7902 14.9212 24.8789 14.3086C24.8789 13.7847 24.617 13.4506 24.2663 13.2773C21.648 11.7944 18.1717 11.0859 14.8562 11.0859ZM14.5664 14.9212C12.7339 14.9212 11.4283 15.1831 10.1186 15.5337C9.68447 15.7059 9.44213 15.9772 9.44213 16.5C9.44213 16.9352 9.78862 17.3704 10.3125 17.3704C10.4899 17.3704 10.5662 17.3621 10.8281 17.2734C11.7872 17.0115 13.1041 16.8547 14.5025 16.8547C17.3817 16.8547 19.8877 17.556 21.7212 18.6914C21.8934 18.7801 22.0718 18.8523 22.3328 18.8523C22.8566 18.8523 23.2031 18.4088 23.2031 17.886C23.2031 17.5354 23.0381 17.1889 22.6875 17.0156C20.4188 15.6183 17.5354 14.9212 14.5664 14.9212ZM14.8562 18.6914C13.3743 18.6914 11.9687 18.8564 10.5703 19.207C10.2197 19.2957 9.95775 19.5453 9.95775 19.9805C9.95775 20.3311 10.2321 20.69 10.6672 20.69C10.7559 20.69 11.0096 20.593 11.1829 20.593C12.3558 20.3195 13.5559 20.1787 14.7603 20.1733C16.9393 20.1733 18.9327 20.6972 20.593 21.6562C20.7704 21.7449 20.9674 21.8171 21.1406 21.8171C21.4912 21.8171 21.8254 21.5552 21.9141 21.2056C21.9141 20.7663 21.7243 20.6044 21.4624 20.4322C19.5412 19.2957 17.2972 18.6914 14.8562 18.6914Z" fill="#FDFEFF"/>
</svg>
