<svg width="38" height="39" viewBox="0 0 38 39" fill="none" xmlns="http://www.w3.org/2000/svg">
<path d="M30.9577 4.8701C30.5765 4.89857 30.2023 4.99035 29.8497 5.14188H29.845C29.5066 5.2796 27.8975 5.97429 25.4512 7.02729L16.6851 10.8164C10.3949 13.5342 4.21162 16.2106 4.21162 16.2106L4.28525 16.1813C4.28525 16.1813 3.85894 16.3251 3.41362 16.6384C3.13851 16.818 2.90178 17.0531 2.71775 17.3294C2.49925 17.6584 2.3235 18.1618 2.38881 18.6822C2.49569 19.5621 3.05144 20.0899 3.45044 20.3811C3.85419 20.6761 4.23894 20.8138 4.23894 20.8138H4.24844L10.047 22.8186C10.3071 23.6754 11.814 28.76 12.1762 29.9313C12.3899 30.6308 12.5977 31.0684 12.8578 31.4023C12.9837 31.5729 13.1309 31.7155 13.3079 31.8301C13.3999 31.885 13.4979 31.9284 13.6 31.9593L13.5406 31.9446C13.5584 31.9495 13.5727 31.9641 13.5857 31.969C13.6332 31.9824 13.6653 31.9873 13.7259 31.997C14.6438 32.2822 15.3812 31.6972 15.3812 31.6972L15.4228 31.6631L18.8464 28.4639L24.5844 32.9818L24.715 33.0391C25.9108 33.5778 27.1221 33.2779 27.7621 32.749C28.4069 32.2164 28.6575 31.5351 28.6575 31.5351L28.6991 31.4254L33.1332 8.11198C33.2591 7.53673 33.2911 6.99804 33.1522 6.4752C33.0089 5.94604 32.6781 5.49094 32.2247 5.19916C31.8441 4.96165 31.4026 4.847 30.9577 4.8701ZM30.8377 7.36854C30.833 7.44532 30.8472 7.43679 30.814 7.58426V7.59766L26.4214 30.6686C26.4024 30.7015 26.3704 30.7734 26.2825 30.8453C26.1899 30.9209 26.1162 30.9684 25.7303 30.8112L18.7122 25.289L14.4728 29.2549L15.3634 23.417L26.8299 12.4483C27.3026 11.9974 27.1446 11.9023 27.1446 11.9023C27.1779 11.349 26.4309 11.7402 26.4309 11.7402L11.9719 20.9332L11.9672 20.9089L5.03694 18.514V18.5091L5.01912 18.5055C5.03127 18.5013 5.04317 18.4965 5.05475 18.4909L5.09275 18.4714L5.12956 18.4579C5.12956 18.4579 11.3176 15.7816 17.6078 13.0638C20.7571 11.7024 23.9301 10.3313 26.3704 9.27345C28.8107 8.22166 30.6145 7.45019 30.7166 7.40876C30.814 7.36976 30.7677 7.36976 30.8377 7.36976V7.36854Z" fill="url(#paint0_linear)"/>
<defs>
<linearGradient id="paint0_linear" x1="17.809" y1="4.86719" x2="17.809" y2="33.3235" gradientUnits="userSpaceOnUse">
<stop offset="0.552083" stop-color="#DBC49B"/>
<stop offset="1" stop-color="#BA9261"/>
</linearGradient>
</defs>
</svg>
