<svg width="31" height="31" viewBox="0 0 31 31" fill="none" xmlns="http://www.w3.org/2000/svg">
<path d="M25.255 3.87048C24.944 3.89311 24.6387 3.96607 24.3511 4.08651H24.3472C24.0711 4.19598 22.7585 4.74817 20.7629 5.58517L13.6115 8.59701C8.48008 10.7573 3.4358 12.8847 3.4358 12.8847L3.49586 12.8614C3.49586 12.8614 3.14808 12.9758 2.7848 13.2247C2.56037 13.3675 2.36724 13.5544 2.21711 13.774C2.03886 14.0356 1.89549 14.4357 1.94877 14.8493C2.03595 15.5488 2.48933 15.9682 2.81483 16.1998C3.1442 16.4342 3.45808 16.5437 3.45808 16.5437H3.46583L8.19624 18.1373C8.40839 18.8183 9.63773 22.8599 9.9332 23.7909C10.1076 24.347 10.2771 24.6947 10.4893 24.9602C10.592 25.0958 10.7121 25.2091 10.8564 25.3002C10.9315 25.3438 11.0115 25.3783 11.0947 25.4029L11.0463 25.3913C11.0608 25.3951 11.0725 25.4068 11.0831 25.4106C11.1219 25.4213 11.148 25.4252 11.1974 25.4329C11.9463 25.6596 12.5479 25.1946 12.5479 25.1946L12.5818 25.1675L15.3747 22.6245L20.0557 26.2157L20.1622 26.2612C21.1378 26.6894 22.1259 26.4511 22.648 26.0306C23.1741 25.6073 23.3785 25.0658 23.3785 25.0658L23.4124 24.9786L27.0297 6.44736C27.1324 5.99011 27.1585 5.56192 27.0452 5.14632C26.9283 4.72572 26.6585 4.36397 26.2886 4.13204C25.9781 3.94325 25.6179 3.85212 25.255 3.87048ZM25.1571 5.85642C25.1532 5.91745 25.1649 5.91067 25.1377 6.02789V6.03854L21.5543 24.377C21.5388 24.4031 21.5127 24.4603 21.441 24.5175C21.3654 24.5775 21.3054 24.6153 20.9905 24.4903L15.2652 20.1009L11.8068 23.2532L12.5333 18.6129L21.8876 9.89417C22.2731 9.53573 22.1443 9.46017 22.1443 9.46017C22.1714 9.02036 21.5621 9.33132 21.5621 9.33132L9.76658 16.6386L9.7627 16.6192L4.10908 14.7156V14.7118L4.09455 14.7089C4.10446 14.7056 4.11416 14.7017 4.12361 14.6972L4.15461 14.6817L4.18464 14.6711C4.18464 14.6711 9.2328 12.5437 14.3643 10.3834C16.9334 9.30129 19.5219 8.21145 21.5127 7.37057C23.5035 6.53454 24.975 5.92132 25.0583 5.88839C25.1377 5.85739 25.1 5.85739 25.1571 5.85739V5.85642Z" fill="#FDFEFF"/>
</svg>
